<svg xmlns="http://www.w3.org/2000/svg" xmlns:xlink="http://www.w3.org/1999/xlink" version="1.1" x="0px" y="0px" viewBox="0 0 66 82.5" enable-background="new 0 0 66 66" xml:space="preserve"><g><path d="M51.6003,63h-5.2002V51.6001c0-0.5522-0.4478-1-1-1H33.0002c-0.5522,0-1,0.4478-1,1v6.1997c0,0.5522,0.4478,1,1,1   s1-0.4478,1-1v-5.1997h4.2002V63H15.4001v-5.2002c0-0.5522-0.4478-1-1-1H8.2004c-0.5522,0-1,0.4478-1,1s0.4478,1,1,1h5.1997V63   H3.0002V40.2002h5.2002c0.5522,0,1-0.4478,1-1V34h10.3999v11.3999c0,0.5522,0.4478,1,1,1s1-0.4478,1-1V33c0-0.5522-0.4478-1-1-1   h-5.2002v-4.2002H25.8v11.4004c0,0.5522,0.4478,1,1,1s1-0.4478,1-1V26.7998c0-0.5522-0.4478-1-1-1H9.2004V15.3999h9.9531   c0.5522,0,1-0.4478,1-1s-0.4478-1-1-1H9.2004V8.2002c0-0.5522-0.4478-1-1-1s-1,0.4478-1,1v18.5996c0,0.5522,0.4478,1,1,1h5.1997V32   H8.2004c-0.5522,0-1,0.4478-1,1v5.2002H3.0002V20.6001c0-0.5522-0.4478-1-1-1s-1,0.4478-1,1V64c0,0.5522,0.4478,1,1,1h49.6001   c0.5527,0,1-0.4478,1-1S52.1531,63,51.6003,63z M40.2004,52.6001h4.1997V63h-4.1997V52.6001z"/><path d="M63.9998,1H2.0002c-0.5522,0-1,0.4478-1,1v12.3999c0,0.5522,0.4478,1,1,1s1-0.4478,1-1V3h10.3999v4.5283   c0,0.1191,0.0296,0.23,0.0679,0.3359c-0.0383,0.106-0.0679,0.2168-0.0679,0.3359c0,0.5522,0.4478,1,1,1h6.2002   c0.5522,0,1-0.4478,1-1s-0.4478-1-1-1h-5.2002V3h22.8003v5.2002c0,0.5522,0.4478,1,1,1s1-0.4478,1-1V3h22.7993v16.6001H52.6003   v-5.2002c0-0.5522-0.4473-1-1-1s-1,0.4478-1,1v6.2002c0,0.5522,0.4473,1,1,1h11.3994v29H52.6003V39.2002c0-0.5522-0.4473-1-1-1   s-1,0.4478-1,1v5.1997H34.0002v-4.4067h5.2002c0.5522,0,1-0.4478,1-1s-0.4478-1-1-1h-6.2002c-0.5522,0-1,0.4478-1,1v5.4067H26.8   c-0.5522,0-1,0.4478-1,1v11.3999h-4.1997v-5.1997c0-0.5522-0.4478-1-1-1H9.2004v-4.2002h5.1997c0.5522,0,1-0.4478,1-1v-6.1997   c0-0.5522-0.4478-1-1-1s-1,0.4478-1,1v5.1997H8.2004c-0.5522,0-1,0.4478-1,1v6.2002c0,0.5522,0.4478,1,1,1h11.3999v5.1997   c0,0.5522,0.4478,1,1,1H26.8c0.5522,0,1-0.4478,1-1V46.3999h22.8003v11.3999c0,0.5522,0.4473,1,1,1s1-0.4478,1-1v-5.1997h4.2002V64   c0,0.5522,0.4473,1,1,1h6.1992c0.5527,0,1-0.4478,1-1V2C64.9998,1.4478,64.5525,1,63.9998,1z M58.8005,63V52.6001h4.1992V63   H58.8005z"/><path d="M33.0002,7.2002H26.8c-0.5522,0-1,0.4478-1,1v11.3999H14.4001c-0.5522,0-1,0.4478-1,1s0.4478,1,1,1H26.8   c0.5522,0,1-0.4478,1-1V9.2002h4.2002v5.1997c0,0.5522,0.4478,1,1,1h11.3999v11.3999c0,0.5522,0.4478,1,1,1h11.4004v17.6001   c0,0.5522,0.4473,1,1,1s1-0.4478,1-1V26.7998c0-0.5522-0.4473-1-1-1H46.4001V14.4688c0-0.0122-0.0065-0.0223-0.007-0.0344   c0.0004-0.0121,0.007-0.0222,0.007-0.0344V9.2002h10.4004v5.1997c0,0.5522,0.4473,1,1,1s1-0.4478,1-1V8.2002c0-0.5522-0.4473-1-1-1   H45.4001c-0.5522,0-1,0.4478-1,1v5.1997H34.0002V8.2002C34.0002,7.648,33.5525,7.2002,33.0002,7.2002z"/><path d="M33.0002,25.7998c-0.5522,0-1,0.4478-1,1V33c0,0.5522,0.4478,1,1,1s1-0.4478,1-1v-5.2002h5.2002c0.5522,0,1-0.4478,1-1   v-6.1997c0-0.5522-0.4478-1-1-1h-9.1279c-0.5522,0-1,0.4478-1,1s0.4478,1,1,1h8.1279v4.1997H33.0002z"/><path d="M45.4001,40.2002c0.5522,0,1-0.4478,1-1V34h7.2148c0.5527,0,1-0.4478,1-1s-0.4473-1-1-1H39.2004c-0.5522,0-1,0.4478-1,1   s0.4478,1,1,1h5.1997v5.2002C44.4001,39.7524,44.8479,40.2002,45.4001,40.2002z"/></g><text x="0" y="81" fill="#000000" font-size="5px" font-weight="bold" font-family="'Helvetica Neue', Helvetica, Arial-Unicode, Arial, Sans-serif">Created by ProSymbols</text><text x="0" y="86" fill="#000000" font-size="5px" font-weight="bold" font-family="'Helvetica Neue', Helvetica, Arial-Unicode, Arial, Sans-serif">from the Noun Project</text></svg>