<svg xmlns="http://www.w3.org/2000/svg" xmlns:xlink="http://www.w3.org/1999/xlink" version="1.1" x="0px" y="0px" viewBox="7.5 7.5 50 62.5" enable-background="new 7.5 7.5 50 50" xml:space="preserve"><path d="M53.343,28.516c-1.747,0-3.219,1.138-3.755,2.705l-7.491-10.938c-0.097-2.111-1.831-3.803-3.965-3.803  c-2.026,0-3.685,1.525-3.934,3.484h-3.396c-0.249-1.959-1.908-3.484-3.934-3.484c-2.134,0-3.868,1.691-3.965,3.802L15.412,31.22  c-0.537-1.567-2.008-2.705-3.754-2.705c-2.197,0-3.984,1.788-3.984,3.984c0,2.197,1.787,3.984,3.984,3.984  c1.747,0,3.218-1.137,3.754-2.704l7.491,10.938c0.097,2.111,1.831,3.803,3.965,3.803c2.025,0,3.685-1.525,3.934-3.484h3.396  c0.249,1.959,1.907,3.484,3.934,3.484c2.135,0,3.868-1.692,3.965-3.804l7.491-10.938c0.536,1.567,2.008,2.705,3.755,2.705  c2.196,0,3.983-1.787,3.983-3.984C57.326,30.303,55.539,28.516,53.343,28.516z M42.064,32c-0.249-1.959-1.907-3.484-3.933-3.484  c-1.625,0-3.021,0.98-3.64,2.378l-1.495-4.318l1.563-4.38c0.646,1.328,1.997,2.252,3.571,2.252c1.746,0,3.218-1.138,3.754-2.705  L48.91,32H42.064z M41.115,32.5c0,1.646-1.338,2.984-2.983,2.984s-2.984-1.339-2.984-2.984s1.339-2.984,2.984-2.984  S41.115,30.854,41.115,32.5z M33.938,33L32.5,37.031L31.062,33H33.938z M31.062,32l1.398-3.918L33.816,32H31.062z M32.475,25.066  l-1.419-4.102h2.883L32.475,25.066z M31.938,26.572l-1.497,4.197c-0.647-1.328-1.998-2.253-3.572-2.253  c-2.025,0-3.684,1.525-3.933,3.484H16.09l7.024-10.256c0.537,1.567,2.008,2.705,3.754,2.705c1.566,0,2.91-0.916,3.561-2.233  L31.938,26.572z M29.853,32.5c0,1.646-1.339,2.984-2.984,2.984s-2.984-1.339-2.984-2.984s1.338-2.984,2.984-2.984  S29.853,30.854,29.853,32.5z M22.936,33c0.249,1.959,1.908,3.484,3.933,3.484c1.574,0,2.925-0.925,3.572-2.253l1.529,4.286  l-1.529,4.287c-0.647-1.328-1.998-2.253-3.572-2.253c-1.747,0-3.218,1.138-3.754,2.705L16.09,33H22.936z M32.5,40.005l1.438,4.031  h-2.876L32.5,40.005z M33.031,38.518l1.529-4.286c0.646,1.328,1.997,2.253,3.571,2.253c2.025,0,3.684-1.525,3.933-3.484h6.846  l-7.024,10.257c-0.536-1.567-2.007-2.705-3.754-2.705c-1.574,0-2.925,0.925-3.571,2.253L33.031,38.518z M38.132,17.479  c1.646,0,2.983,1.339,2.983,2.984s-1.338,2.984-2.983,2.984s-2.984-1.339-2.984-2.984S36.486,17.479,38.132,17.479z M26.869,17.479  c1.646,0,2.984,1.339,2.984,2.984s-1.339,2.984-2.984,2.984s-2.984-1.339-2.984-2.984S25.223,17.479,26.869,17.479z M11.658,35.484  c-1.646,0-2.984-1.339-2.984-2.984s1.338-2.984,2.984-2.984s2.984,1.339,2.984,2.984S13.303,35.484,11.658,35.484z M26.869,47.521  c-1.646,0-2.984-1.339-2.984-2.984s1.338-2.984,2.984-2.984s2.984,1.339,2.984,2.984S28.514,47.521,26.869,47.521z M38.132,47.521  c-1.646,0-2.984-1.339-2.984-2.984s1.339-2.984,2.984-2.984s2.983,1.339,2.983,2.984S39.777,47.521,38.132,47.521z M53.343,35.484  c-1.646,0-2.984-1.339-2.984-2.984s1.339-2.984,2.984-2.984s2.983,1.339,2.983,2.984S54.988,35.484,53.343,35.484z"/><text x="7.5" y="72.5" fill="#000000" font-size="5px" font-weight="bold" font-family="'Helvetica Neue', Helvetica, Arial-Unicode, Arial, Sans-serif">Created by Med Marki</text><text x="7.5" y="77.5" fill="#000000" font-size="5px" font-weight="bold" font-family="'Helvetica Neue', Helvetica, Arial-Unicode, Arial, Sans-serif">from the Noun Project</text></svg>