<svg xmlns="http://www.w3.org/2000/svg" data-name="Layer 1" viewBox="0 0 100 125" x="0px" y="0px"><title>Artboard 14</title><path d="M79,28a7,7,0,0,0-7-7H64a7,7,0,0,0-7,7v8a7,7,0,0,0,.41,2.34L38.35,57.41A7,7,0,0,0,36,57H28a7,7,0,0,0-7,7v8a7,7,0,0,0,7,7h8a7,7,0,0,0,7-7V64a7,7,0,0,0-.41-2.34L61.65,42.59A7,7,0,0,0,64,43h8a7,7,0,0,0,7-7ZM37,72a1,1,0,0,1-1,1H28a1,1,0,0,1-1-1V64a1,1,0,0,1,1-1h8a1,1,0,0,1,1,1ZM73,36a1,1,0,0,1-1,1H64a1,1,0,0,1-1-1V28a1,1,0,0,1,1-1h8a1,1,0,0,1,1,1Z"/><path d="M73,68a5,5,0,0,1-5,5H51v6H68A11,11,0,0,0,79,68V51H73Z"/><path d="M21,49h6V32a5,5,0,0,1,5-5H49V21H32A11,11,0,0,0,21,32Z"/><text x="0" y="115" fill="#000000" font-size="5px" font-weight="bold" font-family="'Helvetica Neue', Helvetica, Arial-Unicode, Arial, Sans-serif">Created by Gregor Cresnar</text><text x="0" y="120" fill="#000000" font-size="5px" font-weight="bold" font-family="'Helvetica Neue', Helvetica, Arial-Unicode, Arial, Sans-serif">from the Noun Project</text></svg>