<svg xmlns="http://www.w3.org/2000/svg" data-name="Layer 1" viewBox="0 0 100 125" x="0px" y="0px"><title>Management</title><path d="M97.312,91.294,60.944,33.107a1.769,1.769,0,0,0-.457-.475V8.052a1.234,1.234,0,0,0-2.467,0V9.287H45.97a2.758,2.758,0,0,0-2.756,2.755V12.7a.289.289,0,0,1-.288.288H29.643a1.233,1.233,0,0,0-.872,2.106l6.53,6.531-6.53,6.531a1.233,1.233,0,0,0,.872,2.105H42.926a2.758,2.758,0,0,0,2.755-2.755v-.947H58.02v6.072a1.739,1.739,0,0,0-.458.474L40.747,60.01l-7.562-12.1a2.064,2.064,0,0,0-3.383,0L2.688,91.294a1.232,1.232,0,0,0,1.046,1.887H96.266a1.232,1.232,0,0,0,1.046-1.887Zm-54.1-63.788a.289.289,0,0,1-.288.288h-10.3l5.3-5.3a1.232,1.232,0,0,0,0-1.744l-5.3-5.3h10.3a2.763,2.763,0,0,0,.288-.014V27.506Zm2.467-3.414V12.042a.288.288,0,0,1,.289-.288H58.02V24.093ZM59.253,35.056,70.024,52.29l-4.6,4.6-5.3-5.3a1.234,1.234,0,0,0-1.744,0l-5.3,5.3-4.6-4.6ZM31.494,49.861l7.686,12.3-3.06,3.06-3.754-3.754a1.234,1.234,0,0,0-1.744,0l-3.755,3.754-3.06-3.059ZM5.96,90.714,22.465,64.307,26,67.837a1.236,1.236,0,0,0,1.744,0l3.755-3.755,3.754,3.755a1.233,1.233,0,0,0,.434.275l-5.235,8.377A1.234,1.234,0,1,0,32.54,77.8l9.254-14.805,5.346-8.554,5.072,5.072a1.234,1.234,0,0,0,1.744,0l5.3-5.3,5.3,5.3a1.234,1.234,0,0,0,1.744,0l5.072-5.072L94.04,90.714Z"/><text x="0" y="115" fill="#000000" font-size="5px" font-weight="bold" font-family="'Helvetica Neue', Helvetica, Arial-Unicode, Arial, Sans-serif">Created by Birckhead Creative</text><text x="0" y="120" fill="#000000" font-size="5px" font-weight="bold" font-family="'Helvetica Neue', Helvetica, Arial-Unicode, Arial, Sans-serif">from the Noun Project</text></svg>