<svg xmlns="http://www.w3.org/2000/svg" data-name="Layer 1" viewBox="0 0 64 80" x="0px" y="0px"><title>Artboard 13</title><path d="M32-240.88A20.9,20.9,0,0,0,11.13-220,20.89,20.89,0,0,0,32-199.13,20.9,20.9,0,0,0,52.88-220,20.91,20.91,0,0,0,32-240.88ZM50.82-221H42a44.7,44.7,0,0,1,2.08-13.45A18.82,18.82,0,0,1,50.82-221ZM33-221v-17.82a18.74,18.74,0,0,1,9.45,3.11A45.64,45.64,0,0,0,40-221Zm-2,0H24a45.64,45.64,0,0,0-2.41-14.71A18.74,18.74,0,0,1,31-238.82Zm0,2v17.82a18.74,18.74,0,0,1-9.45-3.11A45.64,45.64,0,0,0,24-219Zm2,0h7a45.64,45.64,0,0,0,2.41,14.71A18.74,18.74,0,0,1,33-201.18ZM19.88-234.45A44.7,44.7,0,0,1,22-221H13.18A18.82,18.82,0,0,1,19.88-234.45ZM13.18-219H22a44.7,44.7,0,0,1-2.08,13.45A18.82,18.82,0,0,1,13.18-219Zm30.94,13.45A44.7,44.7,0,0,1,42-219h8.78A18.82,18.82,0,0,1,44.12-205.55Zm87.42-31.66H100.46a2.56,2.56,0,0,0-2.56,2.56v2.27a2.57,2.57,0,0,0,2.56,2.57h.11l5,26.21a1,1,0,0,0,1.17.79,1,1,0,0,0,.8-1.17l-1-5.34,9.29,3.45h.37l9.28-3.45-1,5.34a1,1,0,0,0,.8,1.17.55.55,0,0,0,.18,0,1,1,0,0,0,1-.81l5-26.21h.18a2.57,2.57,0,0,0,2.56-2.57v-2.27A2.56,2.56,0,0,0,131.54-237.21Zm-27.89,12.89,9.44,3.51-8.19,3ZM116-207.94l-9.91-3.68-.79-4.16,10.7-4,10.69,4-.79,4.16ZM127-217.77l-8.2-3,9.44-3.51Zm1.68-8.84L116-221.88l-12.75-4.73-.61-3.2h26.72Zm3.38-5.77a.57.57,0,0,1-.56.57H100.46a.57.57,0,0,1-.56-.57v-2.27a.56.56,0,0,1,.56-.56h31.08a.56.56,0,0,1,.56.56ZM217.25-195h-34.5a1,1,0,0,1-1-1v-10.32A15.7,15.7,0,0,1,197.43-222h5.14a15.7,15.7,0,0,1,15.68,15.68V-196A1,1,0,0,1,217.25-195Zm-33.5-2h32.5v-9.32A13.69,13.69,0,0,0,202.57-220h-5.14a13.69,13.69,0,0,0-13.68,13.68Zm27.77-40.81a2.58,2.58,0,0,0-1.1.26A11.07,11.07,0,0,0,200-245a11.07,11.07,0,0,0-10.42,7.39,2.58,2.58,0,0,0-1.1-.26,2.54,2.54,0,0,0-2.54,2.53v.36a2.54,2.54,0,0,0,2.54,2.54,2.6,2.6,0,0,0,.56-.07,11.07,11.07,0,0,0,11,9.64,11.07,11.07,0,0,0,11-9.64,2.6,2.6,0,0,0,.56.07,2.54,2.54,0,0,0,2.54-2.54v-.36A2.54,2.54,0,0,0,211.52-237.84Zm-19.29-.7h15.54a7.8,7.8,0,0,1,.38.7h-16.3A7.8,7.8,0,0,1,192.23-238.54Zm13.92-2h-12.3A9,9,0,0,1,200-243,9,9,0,0,1,206.15-240.54Zm-17.67,6.13a.54.54,0,0,1-.54-.54v-.36a.54.54,0,0,1,.54-.53.53.53,0,0,1,.53.53v.15l0,.37A.52.52,0,0,1,188.48-234.41ZM200-224.84a9.07,9.07,0,0,1-9.06-9.06,5.44,5.44,0,0,1,0-.57,2.45,2.45,0,0,0,0-.48V-235c0-.27.08-.55.14-.81h17.7c.06.26.1.54.14.81v.08a2.45,2.45,0,0,0,0,.48,5.44,5.44,0,0,1,0,.57A9.07,9.07,0,0,1,200-224.84Zm12.06-10.11a.54.54,0,0,1-.54.54.52.52,0,0,1-.5-.38l0-.37v-.15a.53.53,0,0,1,.53-.53.54.54,0,0,1,.54.53Zm-20.39,15.09,90.18,25.4H261.11a1,1,0,0,1-1-1v-6.21a9.84,9.84,0,0,1,9.83-9.83H273a9.84,9.84,0,0,1,9.83,9.83v6.21A1,1,0,0,1,281.85-194.46Zm-19.74-2h18.74v-5.21A7.84,7.84,0,0,0,273-209.5h-3.08a7.84,7.84,0,0,0-7.83,7.83Zm4.36-13.33,40.43,15.33H286.15a1,1,0,0,1-1-1v-6.21A9.84,9.84,0,0,1,295-211.5h3.09a9.84,9.84,0,0,1,9.83,9.83v6.21A1,1,0,0,1,306.9-194.46Zm-19.75-2H305.9v-5.21a7.85,7.85,0,0,0-7.83-7.83H295a7.84,7.84,0,0,0-7.83,7.83Zm4.36-13.33-18.49-22h-3.08a9.84,9.84,0,0,0-9.84,9.83v6.21a1,1,0,0,0,1,1h4.28a7.06,7.06,0,0,0,6.1,3.53,7.06,7.06,0,0,0,6.1-3.53h4.28a1,1,0,0,0,1-1v-6.21A9.85,9.85,0,0,0,273-231.75Zm-1.54,18.57a5.06,5.06,0,0,1-5.05-5,4.78,4.78,0,0,1,.08-.77h9.94a4.78,4.78,0,0,1,.08.77A5.06,5.06,0,0,1,271.48-213.18ZM269-222.63a5,5,0,0,1,2.44-.65,5.09,5.09,0,0,1,2.45.65Zm11.82,5.92h-2.51l.06-.23h0a1.92,1.92,0,0,0,1.92-1.92v-.22a1.92,1.92,0,0,0-1.92-1.92,1.86,1.86,0,0,0-.42.05,7.68,7.68,0,0,0-.57-1.06,1.16,1.16,0,0,0-.24-.34,7,7,0,0,0-5.7-2.93,7,7,0,0,0-5.7,2.94.88.88,0,0,0-.18.25,6.3,6.3,0,0,0-.62,1.14,2,2,0,0,0-.43-.05,1.92,1.92,0,0,0-1.92,1.92v.22a1.92,1.92,0,0,0,1.92,1.92h0l.06.23H262.1v-5.21a7.85,7.85,0,0,1,7.84-7.83H273a7.85,7.85,0,0,1,7.84,7.83Zm-2.45-24.55a1.42,1.42,0,0,0-.42.06,7.06,7.06,0,0,0-6.51-4.34,7,7,0,0,0-6.5,4.34,1.54,1.54,0,0,0-.43-.06,1.93,1.93,0,0,0-1.92,1.93v.22a1.92,1.92,0,0,0,1.92,1.92h0a7.07,7.07,0,0,0,6.93,5.75,7.06,7.06,0,0,0,6.93-5.75h0a1.92,1.92,0,0,0,1.92-1.92v-.22A1.93,1.93,0,0,0,278.41-241.26Zm-4.48-1.62H269a4.92,4.92,0,0,1,2.44-.66A5,5,0,0,1,273.93-242.88Zm-2.45,9.44a5.06,5.06,0,0,1-5.05-5.05,5,5,0,0,1,.08-.77h9.94a5,5,0,0,1,.08.77A5,5,0,0,1,271.48-233.44Zm-5,3.4,31.59-1.71H295a9.83,9.83,0,0,0-9.82,9.83v6.21a1,1,0,0,0,1,1h4.26a7.07,7.07,0,0,0,6.1,3.53,7,7,0,0,0,6.1-3.53h4.28a1,1,0,0,0,1-1v-6.21A9.84,9.84,0,0,0,298.06-231.75Zm-4,9.12a5,5,0,0,1,2.44-.65,5.06,5.06,0,0,1,2.45.65Zm2.44,9.45a5.06,5.06,0,0,1-5-5,4.79,4.79,0,0,1,.07-.77h10a4.79,4.79,0,0,1,.07.77A5.06,5.06,0,0,1,296.52-213.18Zm9.38-3.53h-2.5c0-.08,0-.15.05-.23h0a1.93,1.93,0,0,0,1.93-1.92v-.22a1.93,1.93,0,0,0-1.93-1.92,2,2,0,0,0-.42.05,7.07,7.07,0,0,0-6.51-4.33,7.06,7.06,0,0,0-6.5,4.33,2,2,0,0,0-.43-.05,1.92,1.92,0,0,0-1.92,1.92v.22a1.92,1.92,0,0,0,1.92,1.92h0a1.89,1.89,0,0,0,0,.23h-2.49v-5.21a7.84,7.84,0,0,1,7.82-7.83h3.08a7.85,7.85,0,0,1,7.84,7.83Zm-2.45-24.55a1.52,1.52,0,0,0-.42.06,7.06,7.06,0,0,0-6.51-4.34,7.06,7.06,0,0,0-6.5,4.34,1.54,1.54,0,0,0-.43-.06,1.93,1.93,0,0,0-1.92,1.93v.22a1.92,1.92,0,0,0,1.92,1.92h0a7.05,7.05,0,0,0,6.92,5.75,7.05,7.05,0,0,0,6.93-5.75h0a1.93,1.93,0,0,0,1.93-1.92v-.22A1.94,1.94,0,0,0,303.45-241.26ZM299-242.88h-4.89a5,5,0,0,1,2.44-.66A5,5,0,0,1,299-242.88Zm-2.45,9.44a5.06,5.06,0,0,1-5-5.05,5,5,0,0,1,.08-.77h9.95a5,5,0,0,1,.08.77A5.06,5.06,0,0,1,296.52-233.44Zm-5,3.4M45.75-145.53a3.55,3.55,0,0,1-1.24-2.67v-8.63a1,1,0,0,0-1-1H38.9a1,1,0,0,0-1,1,5.9,5.9,0,0,1-5.9,5.63,5.9,5.9,0,0,1-5.9-5.63,1,1,0,0,0-1-1H20.49a1,1,0,0,0-1,1v8.63a3.59,3.59,0,0,1-1.24,2.68,9.14,9.14,0,0,0-3.08,6.85v23.5a1,1,0,0,0,1,1H47.83a1,1,0,0,0,1-1v-23.5A9.18,9.18,0,0,0,45.75-145.53Zm1.08,29.36H17.17v-22.5A7.19,7.19,0,0,1,19.58-144a5.59,5.59,0,0,0,1.91-4.17v-7.63H24.2a7.91,7.91,0,0,0,7.8,6.58,7.91,7.91,0,0,0,7.8-6.58h2.71v7.63A5.59,5.59,0,0,0,44.42-144a7.19,7.19,0,0,1,2.41,5.36ZM40.75-135.6H23.25a1,1,0,0,0-1,1v10.25a1,1,0,0,0,1,1h17.5a1,1,0,0,0,1-1V-134.6A1,1,0,0,0,40.75-135.6Zm-1,10.25H24.25v-8.25h15.5ZM26.5-130.88a1,1,0,0,1,1-1h9a1,1,0,0,1,1,1,1,1,0,0,1-1,1h-9A1,1,0,0,1,26.5-130.88Zm0,2.8a1,1,0,0,1,1-1h9a1,1,0,0,1,1,1,1,1,0,0,1-1,1h-9A1,1,0,0,1,26.5-128.08ZM133-161.58H99a1,1,0,0,0-1,1v22.25a1,1,0,0,0,1,1h13.33v25.91a1,1,0,0,0,1,1h5.34a1,1,0,0,0,1-1v-25.91H133a1,1,0,0,0,1-1v-22.25A1,1,0,0,0,133-161.58Zm-15.33,49.16h-3.34v-24.91h3.34ZM132-139.33H100v-20.25h32Zm-26.26-3.16h6l.47,1.64a1,1,0,0,0,1,.72h5.66a1,1,0,0,0,1-.72l.47-1.64h6a1,1,0,0,0,1-1v-11.92a1,1,0,0,0-1-1H105.74a1,1,0,0,0-1,1v11.92A1,1,0,0,0,105.74-142.49ZM110.3-149c-.09,0-.16-.07-.16-.23a.16.16,0,0,1,.16-.15h11.4c.09,0,.16.07.16.23a.16.16,0,0,1-.16.15H110.3Zm3.62,6.9-1.39-4.9h6.94l-1.39,4.9Zm-7.18-12.28h18.52v9.92h-4.43l.72-2.54h.15a2.17,2.17,0,0,0,2.16-2.23,2.16,2.16,0,0,0-2.16-2.15H110.3a2.17,2.17,0,0,0-2.16,2.23A2.16,2.16,0,0,0,110.3-147h.15l.72,2.54h-4.43ZM216.79-136h0v-23.52a1,1,0,0,0-1-1H184.21a1,1,0,0,0-1,1V-136h0v23.52a1,1,0,0,0,1,1h31.58a1,1,0,0,0,1-1V-136Zm-14.23-22.53V-157h-5.12v-1.53Zm-7.12,0V-156a1,1,0,0,0,1,1h7.12a1,1,0,0,0,1-1v-2.53h3.71A8.47,8.47,0,0,1,200-152a8.47,8.47,0,0,1-8.27-6.53Zm-5.75,0A10.46,10.46,0,0,0,200-150a10.46,10.46,0,0,0,10.31-8.53h4.48V-137h-7.62a7.26,7.26,0,0,0-7.17-6.25,7.26,7.26,0,0,0-7.17,6.25h-7.62v-21.53ZM194.85-137a5.26,5.26,0,0,1,5.15-4.25,5.26,5.26,0,0,1,5.15,4.25Zm10.3,2a5.26,5.26,0,0,1-5.15,4.25,5.26,5.26,0,0,1-5.15-4.25Zm-2.59,21.53h-5.12V-115h5.12Zm2,0V-116a1,1,0,0,0-1-1h-7.12a1,1,0,0,0-1,1v2.53h-3.71A8.47,8.47,0,0,1,200-120a8.47,8.47,0,0,1,8.27,6.53Zm5.75,0A10.46,10.46,0,0,0,200-122a10.46,10.46,0,0,0-10.31,8.53h-4.48V-135h7.62a7.26,7.26,0,0,0,7.17,6.25,7.26,7.26,0,0,0,7.17-6.25h7.62v21.53Zm92.14-44.09h-36.9a1,1,0,0,0-1,1v41.12a1,1,0,0,0,1,1h14.89a1,1,0,0,0,1-.82L284-129l2.58,13.74a1,1,0,0,0,1,.82h14.89a1,1,0,0,0,1-1v-41.12A1,1,0,0,0,302.45-157.56Zm-35.9,2h34.9v2.22h-34.9Zm34.9,39.12H288.39L285-134.6a1,1,0,0,0-1-.82,1,1,0,0,0-1,.82l-3.41,18.16H266.55v-34.9h34.9ZM47-64.42l.78-.79a2.46,2.46,0,0,0,1.15.3,2.41,2.41,0,0,0,1.71-.7l.18-.19a2.41,2.41,0,0,0,0-3.41l-2.51-2.52a2.48,2.48,0,0,0-3.42,0l-.18.19a2.4,2.4,0,0,0-.41,2.84l-1.34,1.35A22.31,22.31,0,0,0,35-70v-2.93a2.68,2.68,0,0,0,2.29-2.64,2.68,2.68,0,0,0-2.68-2.68h-5.1a2.68,2.68,0,0,0-2.67,2.68,2.67,2.67,0,0,0,2.28,2.64V-70a22.16,22.16,0,0,0-8.09,2.69L19.72-68.7a2.42,2.42,0,0,0-.41-2.85l-.18-.18a2.47,2.47,0,0,0-3.41,0L13.2-69.21a2.41,2.41,0,0,0,0,3.41l.18.19a2.41,2.41,0,0,0,1.71.7,2.46,2.46,0,0,0,1.15-.3l.78.79A22.21,22.21,0,0,0,9.75-48,22.27,22.27,0,0,0,32-25.73,22.27,22.27,0,0,0,54.25-48,22.21,22.21,0,0,0,47-64.42Zm-.88-5.71.19-.19a.35.35,0,0,1,.58,0l2.52,2.52a.42.42,0,0,1,0,.59L49.2-67a.41.41,0,0,1-.57,0L46.1-69.55A.41.41,0,0,1,46.1-70.13Zm-.49,2.93.66.65-.84.85c-.25-.19-.5-.38-.76-.56ZM28.87-75.59a.68.68,0,0,1,.67-.68h5.1a.69.69,0,0,1,.68.68.68.68,0,0,1-.68.68h-5.1A.67.67,0,0,1,28.87-75.59Zm2.28,5.36v-2.68H33v2.68Zm-16.54,3a.42.42,0,0,1,0-.59l2.52-2.52a.43.43,0,0,1,.29-.12.39.39,0,0,1,.29.13l.19.18a.41.41,0,0,1,0,.58L15.37-67a.41.41,0,0,1-.57,0Zm3.12.66.66-.65.94.94c-.26.18-.51.37-.76.56ZM32-27.73A20.27,20.27,0,0,1,11.75-48,20.27,20.27,0,0,1,32-68.23,20.27,20.27,0,0,1,52.25-48,20.27,20.27,0,0,1,32-27.73Zm0-39.91A19.68,19.68,0,0,0,12.34-48,19.68,19.68,0,0,0,32-28.32,19.68,19.68,0,0,0,51.66-48,19.68,19.68,0,0,0,32-67.64Zm0,37.32A17.68,17.68,0,0,1,14.34-48,17.68,17.68,0,0,1,32-65.64,17.68,17.68,0,0,1,49.66-48,17.68,17.68,0,0,1,32-30.32ZM47.52-48A15.6,15.6,0,0,1,32-32.46,15.6,15.6,0,0,1,16.48-48,15.59,15.59,0,0,1,32-63.5V-48Zm87.8-12.72-.15-.14a4.67,4.67,0,0,0,1.05-2.93,4.67,4.67,0,0,0-1.38-3.33l-3.73-3.74a4.69,4.69,0,0,0-3.33-1.38,4.69,4.69,0,0,0-2.93,1l-.15-.15a4.48,4.48,0,0,0-6.31,0l-.63.64a4.45,4.45,0,0,0,0,6.3l3.63,3.63L107.26-46.61l-3.64-3.63a4.39,4.39,0,0,0-3.15-1.31,4.39,4.39,0,0,0-3.15,1.31l-.63.63a4.39,4.39,0,0,0-1.31,3.15,4.43,4.43,0,0,0,1.31,3.16l.15.15a4.69,4.69,0,0,0,.32,6.25l3.74,3.74a4.72,4.72,0,0,0,3.33,1.37,4.68,4.68,0,0,0,2.92-1l.16.15a4.42,4.42,0,0,0,3.15,1.3,4.48,4.48,0,0,0,3.15-1.3l.63-.64a4.45,4.45,0,0,0,0-6.3l-3.63-3.63,14.14-14.14,3.63,3.63a4.45,4.45,0,0,0,3.15,1.31,4.45,4.45,0,0,0,3.15-1.31l.64-.63A4.48,4.48,0,0,0,135.32-60.7Zm-33,26.12-3.73-3.73a2.72,2.72,0,0,1-.33-3.43L102-38l3.74,3.74A2.72,2.72,0,0,1,102.31-34.58Zm10.52-.15-.63.63a2.46,2.46,0,0,1-3.48,0l-.12-.11h0l-6.25-6.25L98.1-44.72a2.45,2.45,0,0,1-.72-1.74,2.45,2.45,0,0,1,.72-1.73l.64-.64a2.45,2.45,0,0,1,1.73-.72,2.45,2.45,0,0,1,1.74.72l10.62,10.62A2.46,2.46,0,0,1,112.83-34.73Zm13.43-35a2.77,2.77,0,0,1,3.43.33l3.73,3.73a2.66,2.66,0,0,1,.8,1.92,2.62,2.62,0,0,1-.47,1.51ZM109.2-44.67l-.53-.53L122.8-59.33l.53.53Zm24.7-11.14-.63.64a2.46,2.46,0,0,1-3.48,0l-3.63-3.63h0l-3.36-3.36h0l-3.63-3.63a2.46,2.46,0,0,1,0-3.48l.64-.63a2.45,2.45,0,0,1,1.74-.72,2.45,2.45,0,0,1,1.73.72l.12.11,10.39,10.4.11.11A2.45,2.45,0,0,1,133.9-55.81ZM208.38-67v-4.56a2.5,2.5,0,0,0-2.49-2.5h-2.32v-2.64a2.5,2.5,0,0,0-2.5-2.5h-2.14a2.5,2.5,0,0,0-2.5,2.5V-74h-2.32a2.5,2.5,0,0,0-2.49,2.5V-67a6,6,0,0,0-2.76,5v31.25a5.85,5.85,0,0,0,5.84,5.85h10.6a5.85,5.85,0,0,0,5.84-5.85V-61.93A6,6,0,0,0,208.38-67Zm-9.95-9.7a.51.51,0,0,1,.5-.5h2.14a.51.51,0,0,1,.5.5V-74h-3.14Zm-4.81,8.74v-3.6a.49.49,0,0,1,.49-.5h11.78a.49.49,0,0,1,.49.5v3.6H193.62Zm15.52,37.25a3.85,3.85,0,0,1-3.84,3.85H194.7a3.85,3.85,0,0,1-3.84-3.85V-61.93a4,4,0,0,1,4-4h10.28a4,4,0,0,1,4,4Zm93.59-32-11.94,3.2a1,1,0,0,0-.71.7,1,1,0,0,0,.26,1l3.58,3.58c-9.32,7.19-26,6.76-34.38-1.31l-1.39,1.44c4.8,4.6,12.08,6.9,19.36,6.9,6.55,0,13.1-1.87,17.84-5.6l3.73,3.73a1,1,0,0,0,.71.29,1.07,1.07,0,0,0,.25,0,1,1,0,0,0,.71-.71L304-61.46a1,1,0,0,0-.26-1A1,1,0,0,0,302.73-62.68Zm-3.46,11-2.74-2.74-1-1.09,0,0L293-58l8.59-2.3ZM278.7-59.64a2.92,2.92,0,0,0,2.92-2.91,2.92,2.92,0,0,0-2.92-2.92,2.92,2.92,0,0,0-2.92,2.92A2.92,2.92,0,0,0,278.7-59.64Zm0-3.83a.92.92,0,0,1,.92.92.92.92,0,0,1-.92.91.92.92,0,0,1-.92-.91A.92.92,0,0,1,278.7-63.47Zm28.23-5.11A2.92,2.92,0,0,0,304-65.66a2.92,2.92,0,0,0,2.92,2.92,2.92,2.92,0,0,0,2.92-2.92A2.92,2.92,0,0,0,306.93-68.58Zm0,3.84a.92.92,0,0,1-.92-.92.92.92,0,0,1,.92-.92.92.92,0,0,1,.92.92A.92.92,0,0,1,306.93-64.74ZM292.84-44.16a2.92,2.92,0,0,0-2.92,2.92,2.92,2.92,0,0,0,2.92,2.92,2.92,2.92,0,0,0,2.92-2.92A2.92,2.92,0,0,0,292.84-44.16Zm0,3.84a.92.92,0,0,1-.92-.92.92.92,0,0,1,.92-.92.92.92,0,0,1,.92.92A.92.92,0,0,1,292.84-40.32Zm-21-.92-2.2,2.2,2.2,2.2-1.41,1.42-2.2-2.21-2.2,2.21-1.42-1.42,2.2-2.2-2.2-2.2,1.42-1.42,2.2,2.21,2.2-2.21Zm-8.65-13.23,2.2-2.2-2.2-2.2,1.42-1.42,2.2,2.21,2.2-2.21,1.41,1.42-2.2,2.2,2.2,2.2L269-53l-2.2-2.21L264.64-53ZM49.27,43.32V31.63a1,1,0,0,0-1-1H38.71V28.2a1,1,0,0,0-1-1H33V21.53h4.71a1,1,0,0,0,1-1V13.67a1,1,0,0,0-1-1H26.29a1,1,0,0,0-1,1v6.86a1,1,0,0,0,1,1H31V27.2H26.29a1,1,0,0,0-1,1v2.43H15.73a1,1,0,0,0-1,1V43.32H6.83a1,1,0,0,0-1,1v7h2v-6h15.8v6h2v-7a1,1,0,0,0-1-1h-7.9V32.63h8.56v2.42a1,1,0,0,0,1,1H37.71a1,1,0,0,0,1-1V32.63h8.56V43.32h-8.9v8h2v-6h15.8v6h2v-8Zm-22-23.79V14.67h9.42v4.86H27.29Zm9.42,14.52H27.29V29.2h9.42Zm96.79-2a17.45,17.45,0,0,0-7.17-14.09V11.83a4,4,0,0,0-4-4H109.67a4,4,0,0,0-4,4v6.08a17.43,17.43,0,0,0,0,28.18v6.08a4,4,0,0,0,4,4h12.66a4,4,0,0,0,4-4V46.09A17.45,17.45,0,0,0,133.5,32ZM107.67,11.83a2,2,0,0,1,2-2h12.66a2,2,0,0,1,2,2v4.78a17.5,17.5,0,0,0-16.66,0Zm16.66,40.34a2,2,0,0,1-2,2H109.67a2,2,0,0,1-2-2V47.39a17.5,17.5,0,0,0,16.66,0ZM116,47.5A15.5,15.5,0,1,1,131.5,32,15.51,15.51,0,0,1,116,47.5Zm0-30.08A14.58,14.58,0,1,0,130.58,32,14.6,14.6,0,0,0,116,17.42Zm1,27.11v-2.4a1,1,0,1,0-2,0v2.4A12.57,12.57,0,0,1,103.47,33h2.41a1,1,0,0,0,0-2h-2.41A12.57,12.57,0,0,1,115,19.47v2.41a1,1,0,0,0,2,0V19.47A12.57,12.57,0,0,1,128.53,31h-2.4a1,1,0,0,0,0,2h2.4A12.57,12.57,0,0,1,117,44.53ZM123.19,32a1,1,0,0,1-1,1h-5a1.51,1.51,0,0,1-1.16.54A1.54,1.54,0,0,1,114.46,32a1.51,1.51,0,0,1,.54-1.16V26.08a1,1,0,1,1,2,0v4.76a1.21,1.21,0,0,1,.16.16h5A1,1,0,0,1,123.19,32Zm100.69-1H211.13V17.5a1,1,0,0,0-1-1H189.88a1,1,0,0,0-1,1V31H176.13a1,1,0,0,0-1,1V46.5a1,1,0,0,0,1,1h47.75a1,1,0,0,0,1-1V32A1,1,0,0,0,223.88,31Zm-33-12.5h18.25V31H190.88ZM177.13,33H199V45.5H177.13Zm45.75,12.5H201V33h21.88Zm58.53-1.13-.27,1.56a1,1,0,0,0,.4,1,1,1,0,0,0,1,.08l1.41-.74,1.41.74a1,1,0,0,0,.46.11,1,1,0,0,0,.59-.19,1,1,0,0,0,.4-1l-.27-1.56,1.14-1.12a1,1,0,0,0-.56-1.7l-1.57-.23-.7-1.43a1,1,0,0,0-1.8,0l-.7,1.43-1.57.23a1,1,0,0,0-.56,1.7Zm1.8-1.15a1,1,0,0,0,.75-.54l0-.08,0,.08a1,1,0,0,0,.75.54l.09,0-.06.06a1,1,0,0,0-.29.88v.09l-.07,0a1.06,1.06,0,0,0-.94,0l-.07,0v-.09a1,1,0,0,0-.29-.88l-.06-.06Zm24.23-30a1,1,0,0,0-2,0,21.44,21.44,0,0,1-42.88,0,1,1,0,0,0-2,0,23.47,23.47,0,0,0,18.61,22.93,8.56,8.56,0,1,0,9.66,0A23.47,23.47,0,0,0,307.44,13.22Zm-16.88,30A6.56,6.56,0,1,1,284,36.66,6.56,6.56,0,0,1,290.56,43.22Z"/><text x="0" y="79" fill="#000000" font-size="5px" font-weight="bold" font-family="'Helvetica Neue', Helvetica, Arial-Unicode, Arial, Sans-serif">Created by Dicron Studio</text><text x="0" y="84" fill="#000000" font-size="5px" font-weight="bold" font-family="'Helvetica Neue', Helvetica, Arial-Unicode, Arial, Sans-serif">from the Noun Project</text></svg>