<svg xmlns="http://www.w3.org/2000/svg" viewBox="0 0 32 40" fill="none" x="0px" y="0px"><path fill-rule="evenodd" clip-rule="evenodd" d="M22.565 7.15076C21.147 5.73283 18.9023 5.5733 17.2981 6.77645L16 7.75L14.7019 6.77645C13.0977 5.5733 10.853 5.73283 9.43503 7.15076C7.86144 8.72435 7.86143 11.2756 9.43503 12.8492L15.2929 18.7071C15.6834 19.0976 16.3166 19.0976 16.7071 18.7071L22.565 12.8492C24.1386 11.2757 24.1386 8.72435 22.565 7.15076ZM18.4981 8.37645C19.306 7.77048 20.4366 7.85083 21.1508 8.56497C21.9433 9.35752 21.9433 10.6425 21.1508 11.435L16 16.5858L10.8492 11.435C10.0567 10.6425 10.0567 9.35752 10.8492 8.56497C11.5634 7.85083 12.694 7.77048 13.5019 8.37645L15.4 9.8C15.7556 10.0667 16.2444 10.0667 16.6 9.8L18.4981 8.37645Z" fill="black"/><path fill-rule="evenodd" clip-rule="evenodd" d="M3 0C1.34315 0 0 1.34314 0 3V21C0 22.6569 1.34315 24 3 24H6V31C6 31.3844 6.22035 31.7348 6.56681 31.9013C6.91328 32.0678 7.32452 32.021 7.62469 31.7809L17.3508 24H29C30.6569 24 32 22.6569 32 21V3C32 1.34315 30.6569 0 29 0H3ZM2 3C2 2.44772 2.44771 2 3 2H29C29.5523 2 30 2.44772 30 3V21C30 21.5523 29.5523 22 29 22H17C16.7729 22 16.5526 22.0773 16.3753 22.2191L8 28.9194V23C8 22.4477 7.55228 22 7 22H3C2.44772 22 2 21.5523 2 21V3Z" fill="black"/><text x="0" y="47" fill="#000000" font-size="5px" font-weight="bold" font-family="'Helvetica Neue', Helvetica, Arial-Unicode, Arial, Sans-serif">Created by Heztasia</text><text x="0" y="52" fill="#000000" font-size="5px" font-weight="bold" font-family="'Helvetica Neue', Helvetica, Arial-Unicode, Arial, Sans-serif">from the Noun Project</text></svg>